<svg xmlns="http://www.w3.org/2000/svg" xmlns:xlink="http://www.w3.org/1999/xlink" width="137.837" height="47.89" viewBox="0 0 137.837 47.89">
  <defs>
    <clipPath id="clip-path">
      <path id="Path_625" data-name="Path 625" d="M0-327.333H137.837v-47.89H0Z" transform="translate(0 375.223)" fill="none"/>
    </clipPath>
  </defs>
  <g id="Group_3729" data-name="Group 3729" transform="translate(0 375.224)">
    <g id="Group_2717" data-name="Group 2717" transform="translate(0 -375.224)" clip-path="url(#clip-path)">
      <g id="Group_2715" data-name="Group 2715" transform="translate(0 7.49)">
        <path id="Path_623" data-name="Path 623" d="M-31.537-106.053a3.165,3.165,0,0,0,.965,1.132,4.162,4.162,0,0,0,1.412.643,6.666,6.666,0,0,0,1.677.21,8.708,8.708,0,0,0,1.258-.1,4.377,4.377,0,0,0,1.258-.377,2.742,2.742,0,0,0,.979-.769,1.929,1.929,0,0,0,.391-1.244,1.752,1.752,0,0,0-.517-1.314,4.1,4.1,0,0,0-1.356-.839,13.518,13.518,0,0,0-1.9-.587q-1.063-.252-2.153-.559a19.025,19.025,0,0,1-2.181-.685,7.478,7.478,0,0,1-1.9-1.048,4.937,4.937,0,0,1-1.356-1.607,4.877,4.877,0,0,1-.517-2.335,5.225,5.225,0,0,1,.657-2.67,5.946,5.946,0,0,1,1.719-1.887,7.494,7.494,0,0,1,2.4-1.118,10.24,10.24,0,0,1,2.684-.363,12.71,12.71,0,0,1,3.005.349,7.506,7.506,0,0,1,2.558,1.132,5.733,5.733,0,0,1,1.775,2,6.134,6.134,0,0,1,.657,2.949h-4.249a3.537,3.537,0,0,0-.377-1.482,2.473,2.473,0,0,0-.853-.923,3.616,3.616,0,0,0-1.216-.475,7.5,7.5,0,0,0-1.5-.14,5.159,5.159,0,0,0-1.062.112,2.848,2.848,0,0,0-.965.391,2.421,2.421,0,0,0-.713.7,1.875,1.875,0,0,0-.28,1.062,1.79,1.79,0,0,0,.224.951,1.992,1.992,0,0,0,.881.671,11.185,11.185,0,0,0,1.817.615q1.16.308,3.033.783.559.112,1.552.405a7.447,7.447,0,0,1,1.971.937,5.961,5.961,0,0,1,1.691,1.719,4.894,4.894,0,0,1,.713,2.754,6.1,6.1,0,0,1-.531,2.544,5.526,5.526,0,0,1-1.58,2.027,7.585,7.585,0,0,1-2.6,1.328,12.3,12.3,0,0,1-3.592.475,12.624,12.624,0,0,1-3.2-.405,8.042,8.042,0,0,1-2.74-1.272,6.273,6.273,0,0,1-1.887-2.209,6.589,6.589,0,0,1-.671-3.187H-31.9a3.658,3.658,0,0,0,.363,1.705" transform="translate(36.151 121.569)" fill="#fff"/>
      </g>
      <g id="Group_2716" data-name="Group 2716" transform="translate(18.536 7.49)">
        <path id="Path_624" data-name="Path 624" d="M-4.586-43.664A9.976,9.976,0,0,1-2.657-47,8.824,8.824,0,0,1,.432-49.241a10.085,10.085,0,0,1,4.124-.811,10.062,10.062,0,0,1,4.138.811A8.858,8.858,0,0,1,11.768-47,9.974,9.974,0,0,1,13.7-43.664a12.476,12.476,0,0,1,.671,4.151,12.058,12.058,0,0,1-.671,4.068,9.716,9.716,0,0,1-1.929,3.285,8.861,8.861,0,0,1-3.075,2.194,10.211,10.211,0,0,1-4.138.8,10.234,10.234,0,0,1-4.124-.8A8.828,8.828,0,0,1-2.657-32.16a9.718,9.718,0,0,1-1.929-3.285,12.055,12.055,0,0,1-.671-4.068,12.472,12.472,0,0,1,.671-4.151m4.012,6.6a6.6,6.6,0,0,0,.936,2.139A4.794,4.794,0,0,0,2.04-33.4a5.121,5.121,0,0,0,2.516.573A5.123,5.123,0,0,0,7.072-33.4a4.8,4.8,0,0,0,1.677-1.524,6.609,6.609,0,0,0,.937-2.139,10.162,10.162,0,0,0,.294-2.446,10.928,10.928,0,0,0-.294-2.544,6.743,6.743,0,0,0-.937-2.195,4.756,4.756,0,0,0-1.677-1.538,5.127,5.127,0,0,0-2.516-.573,5.125,5.125,0,0,0-2.516.573A4.75,4.75,0,0,0,.362-44.251a6.734,6.734,0,0,0-.936,2.195,10.928,10.928,0,0,0-.294,2.544,10.162,10.162,0,0,0,.294,2.446" transform="translate(5.257 50.052)" fill="#fff"/>
      </g>
    </g>
    <g id="Group_2718" data-name="Group 2718" transform="translate(39.056 -367.259)">
      <path id="Path_626" data-name="Path 626" d="M-82.36,0-74.9,19.961h-4.557l-1.51-4.445h-7.464l-1.566,4.445h-4.417L-86.861,0Zm.252,12.245L-84.624,4.92h-.056l-2.6,7.325Z" transform="translate(94.409)" fill="#fff"/>
    </g>
    <g id="Group_2722" data-name="Group 2722" transform="translate(0 -375.224)" clip-path="url(#clip-path)">
      <g id="Group_2719" data-name="Group 2719" transform="translate(60.303 7.965)">
        <path id="Path_627" data-name="Path 627" d="M-61.53,0a8.314,8.314,0,0,1,3.187.545A5.966,5.966,0,0,1-56.2,1.985,5.535,5.535,0,0,1-55,4.026,7.548,7.548,0,0,1-54.625,6.4,7.587,7.587,0,0,1-55,8.764a5.509,5.509,0,0,1-1.2,2.055,5.962,5.962,0,0,1-2.139,1.44,8.314,8.314,0,0,1-3.187.545h-4.613v7.157h-4.389V0Zm-1.2,9.393a9.181,9.181,0,0,0,1.454-.112,3.379,3.379,0,0,0,1.23-.433A2.362,2.362,0,0,0-59.2,7.94,3.2,3.2,0,0,0-58.874,6.4,3.2,3.2,0,0,0-59.2,4.864a2.365,2.365,0,0,0-.853-.909,3.393,3.393,0,0,0-1.23-.433,9.227,9.227,0,0,0-1.454-.112h-3.411V9.393Z" transform="translate(70.532)" fill="#fff"/>
      </g>
      <g id="Group_2720" data-name="Group 2720" transform="translate(78.95 7.965)">
        <path id="Path_628" data-name="Path 628" d="M-64.206,0a12.424,12.424,0,0,1,2.6.252,5.62,5.62,0,0,1,2.013.825,3.841,3.841,0,0,1,1.3,1.524,5.356,5.356,0,0,1,.461,2.348,4.375,4.375,0,0,1-.685,2.516,4.977,4.977,0,0,1-2.027,1.649,4.8,4.8,0,0,1,2.754,1.859,5.534,5.534,0,0,1,.909,3.2,5.5,5.5,0,0,1-.587,2.614,5.092,5.092,0,0,1-1.579,1.8,6.99,6.99,0,0,1-2.265,1.034,10.211,10.211,0,0,1-2.614.336H-73.6V0Zm-.559,8.079a3.154,3.154,0,0,0,1.929-.559A2.112,2.112,0,0,0-62.081,5.7a2.322,2.322,0,0,0-.252-1.146,1.863,1.863,0,0,0-.671-.7,2.836,2.836,0,0,0-.964-.349,6.413,6.413,0,0,0-1.132-.1h-4.11V8.079Zm.252,8.471a5.86,5.86,0,0,0,1.23-.126,3.023,3.023,0,0,0,1.034-.419,2.116,2.116,0,0,0,.713-.8,2.746,2.746,0,0,0,.266-1.286,2.582,2.582,0,0,0-.867-2.195,3.7,3.7,0,0,0-2.292-.657H-69.21v5.48Z" transform="translate(73.599)" fill="#fff"/>
      </g>
      <g id="Group_2721" data-name="Group 2721" transform="translate(97.764 7.49)">
        <path id="Path_629" data-name="Path 629" d="M-4.586-43.664A9.974,9.974,0,0,1-2.657-47,8.824,8.824,0,0,1,.432-49.241a10.085,10.085,0,0,1,4.124-.811,10.061,10.061,0,0,1,4.138.811A8.86,8.86,0,0,1,11.769-47,9.978,9.978,0,0,1,13.7-43.664a12.472,12.472,0,0,1,.671,4.151,12.055,12.055,0,0,1-.671,4.068,9.72,9.72,0,0,1-1.929,3.285,8.864,8.864,0,0,1-3.075,2.194,10.21,10.21,0,0,1-4.138.8,10.234,10.234,0,0,1-4.124-.8A8.828,8.828,0,0,1-2.657-32.16a9.716,9.716,0,0,1-1.929-3.285,12.058,12.058,0,0,1-.671-4.068,12.476,12.476,0,0,1,.671-4.151m4.012,6.6a6.6,6.6,0,0,0,.937,2.139A4.792,4.792,0,0,0,2.04-33.4a5.12,5.12,0,0,0,2.516.573A5.122,5.122,0,0,0,7.072-33.4a4.8,4.8,0,0,0,1.677-1.524,6.609,6.609,0,0,0,.936-2.139,10.156,10.156,0,0,0,.294-2.446,10.921,10.921,0,0,0-.294-2.544,6.743,6.743,0,0,0-.936-2.195,4.758,4.758,0,0,0-1.677-1.538,5.127,5.127,0,0,0-2.516-.573,5.125,5.125,0,0,0-2.516.573A4.747,4.747,0,0,0,.362-44.251a6.732,6.732,0,0,0-.937,2.195,10.928,10.928,0,0,0-.293,2.544,10.162,10.162,0,0,0,.293,2.446" transform="translate(5.257 50.052)" fill="#fff"/>
      </g>
    </g>
    <g id="Group_2723" data-name="Group 2723" transform="translate(118.312 -367.259)">
      <path id="Path_631" data-name="Path 631" d="M-3.63,0H1.458L5.372,6.374,9.426,0h4.809l-6.4,9.533,6.961,10.428H9.566L5.2,13.056.759,19.961h-4.92L2.8,9.505Z" transform="translate(4.161)" fill="#fff"/>
    </g>
    <path id="Path_632" data-name="Path 632" d="M618.639-370.851h58.88v-4.373h-58.88Z" transform="translate(-539.682)" fill="#fff"/>
    <path id="Path_633" data-name="Path 633" d="M618.535-123.9h58.881v-4.373H618.535Z" transform="translate(-539.591 -215.431)" fill="#fff"/>
    <g id="Group_2724" data-name="Group 2724" transform="translate(79.448 -334.818)">
      <path id="Path_634" data-name="Path 634" d="M-354.848,0V1.975h2.008V7.484h2.266V1.975h2V0Zm-6.44,0V3.77l-2.6-3.77h-2.334V7.484h2.266V3.467l2.76,4.017h2.177V0Zm-14.99,0V7.484h5.677V5.6h-3.411V4.645h3.332V2.76h-3.332V1.885h3.411V0Zm-9.38,0V7.484h5.105V5.509h-2.839V0Zm-9.38,0-2.76,7.484h2.457l.292-.965h2.872l.292.965h2.457L-392.188,0Zm1.425,2,.853,2.637h-1.706Zm-13.15-2V1.975h2.008V7.484h2.266V1.975h2V0Z" transform="translate(406.763)" fill="#fff"/>
    </g>
  </g>
</svg>
